# Blender v2.81 (sub 16) OBJ File: ''
# www.blender.org
mtllib textured_cube.mtl
o Cube.001
v 51.188374 51.188377 -51.188370
v 51.188374 -51.188370 -51.188377
v 51.188374 -51.188377 51.188370
v 51.188374 51.188370 51.188377
v -51.188374 -51.188377 51.188370
v -51.188374 51.188370 51.188377
v -51.188374 -51.188370 -51.188377
v -51.188374 51.188377 -51.188370
vt 0.625000 0.000000
vt 0.375000 0.000000
vt 0.375000 0.250000
vt 0.625000 0.250000
vt 0.375000 0.500000
vt 0.625000 0.500000
vt 0.375000 0.750000
vt 0.625000 0.750000
vt 0.375000 1.000000
vt 0.125000 0.500000
vt 0.125000 0.750000
vt 0.875000 0.500000
vt 0.625000 1.000000
vt 0.875000 0.750000
vn 1.0000 -0.0000 0.0000
vn 0.0000 -0.0000 1.0000
vn -1.0000 0.0000 0.0000
vn 0.0000 0.0000 -1.0000
vn 0.0000 1.0000 0.0000
vn 0.0000 -1.0000 -0.0000
usemtl Material.001
s 1
f 2/1/1 1/2/1 4/3/1
f 3/4/2 4/3/2 6/5/2
f 5/6/3 6/5/3 8/7/3
f 7/8/4 8/7/4 1/9/4
f 6/5/5 4/10/5 1/11/5
f 3/12/6 5/6/6 7/8/6
f 2/1/1 4/3/1 3/4/1
f 3/4/2 6/5/2 5/6/2
f 5/6/3 8/7/3 7/8/3
f 7/8/4 1/9/4 2/13/4
f 6/5/5 1/11/5 8/7/5
f 3/12/6 7/8/6 2/14/6
