# Blender v2.80 (sub 75) OBJ File: ''
# www.blender.org
mtllib bouteille.mtl
o SM_Prop_Bottle_363_SM_Prop_Bottle_01
v 0.000000 0.248734 0.022655
v 0.047092 0.209023 0.046221
v 0.015408 0.248734 0.015410
v 0.000000 0.248734 -0.022655
v 0.047092 0.209023 -0.046221
v -0.047096 0.209023 -0.046221
v 0.022655 0.248734 -0.000000
v 0.065372 0.209023 0.030414
v 0.065372 0.209023 -0.030413
v -0.022659 0.248734 -0.000000
v -0.065369 0.209023 0.030414
v -0.015415 0.248734 0.015410
v -0.015415 0.248734 -0.015409
v 0.015408 0.248734 -0.015409
v -0.047096 0.209023 0.046221
v -0.065369 0.209023 -0.030413
v 0.069836 0.052086 -0.032488
v 0.069828 0.052086 -0.013117
v 0.069836 -0.000000 -0.032488
v -0.069832 0.192633 0.032489
v -0.069832 0.153965 0.032489
v -0.050312 0.192633 0.049376
v -0.050312 0.153965 0.049376
v 0.050312 0.192633 0.049376
v 0.069836 0.153965 0.032489
v 0.069836 0.192633 0.032489
v 0.050308 0.153965 0.049376
v 0.050308 0.153965 -0.049376
v -0.050312 0.153965 -0.049376
v -0.050312 0.192633 -0.049376
v 0.050312 0.192633 -0.049376
v 0.000000 0.322392 0.018086
v 0.012299 0.322392 0.012302
v -0.018085 0.322392 -0.000000
v -0.012306 0.322392 0.012302
v 0.012299 0.322392 -0.012301
v 0.000000 0.322392 -0.018085
v 0.018085 0.322392 -0.000000
v -0.069832 0.153965 -0.032488
v -0.069832 0.192633 -0.032488
v -0.012306 0.322392 -0.012301
v 0.069836 0.153965 -0.032488
v 0.069836 0.192633 -0.032488
v 0.000000 0.359085 -0.022419
v 0.015251 0.324322 -0.015247
v 0.000000 0.324322 -0.022419
v 0.015251 0.359085 -0.015249
v 0.022419 0.359085 -0.000000
v 0.022419 0.324322 -0.000000
v 0.015251 0.324322 0.015250
v 0.015251 0.359085 0.015250
v 0.000000 0.359085 0.022420
v 0.000000 0.324322 0.022420
v -0.015255 0.359085 0.015250
v -0.015255 0.324322 0.015250
v -0.022423 0.359085 -0.000000
v -0.022419 0.324322 -0.000000
v -0.015255 0.324322 -0.015247
v -0.015255 0.359085 -0.015249
v -0.069832 0.052086 0.032489
v -0.050312 0.052086 0.049376
v 0.050308 0.052086 0.049376
v 0.069828 0.052086 0.032489
v 0.069828 0.052086 0.011789
v 0.069836 0.153965 0.011789
v 0.050308 0.052086 -0.049376
v -0.050312 0.052086 -0.049376
v -0.069832 0.052086 -0.032488
v -0.069832 0.000000 0.032489
v -0.050312 0.000000 0.049376
v 0.050308 0.000000 0.049376
v 0.069836 0.000000 0.032489
v 0.050308 -0.000000 -0.049376
v -0.050312 -0.000000 -0.049376
v -0.069832 -0.000000 -0.032488
v -0.069832 0.153965 0.011789
v -0.069832 0.052086 0.011789
v 0.069836 0.153965 -0.013117
v -0.069832 0.052086 -0.013117
v -0.069832 0.153965 -0.013117
v 0.000000 0.359085 -0.000000
v 0.000000 0.000000 0.000000
vt 0.171875 0.446289
vt 0.171875 0.446289
vt 0.171875 0.446289
vt 0.171875 0.446289
vt 0.171875 0.446289
vt 0.171875 0.446289
vt 0.171875 0.446289
vt 0.171875 0.446289
vt 0.171875 0.446289
vt 0.171875 0.446289
vt 0.171875 0.446289
vt 0.171875 0.446289
vt 0.171875 0.446289
vt 0.171875 0.446289
vt 0.171875 0.446289
vt 0.171875 0.446289
vt 0.171875 0.446289
vt 0.171875 0.446289
vt 0.171875 0.446289
vt 0.171875 0.446289
vt 0.171875 0.446289
vt 0.171875 0.446289
vt 0.171875 0.446289
vt 0.171875 0.446289
vt 0.171875 0.446289
vt 0.171875 0.446289
vt 0.171875 0.446289
vt 0.171875 0.446289
vt 0.171875 0.446289
vt 0.171875 0.446289
vt 0.171875 0.446289
vt 0.171875 0.446289
vt 0.171875 0.446289
vt 0.171875 0.446289
vt 0.171875 0.446289
vt 0.171875 0.446289
vt 0.171875 0.446289
vt 0.171875 0.446289
vt 0.171875 0.446289
vt 0.171875 0.446289
vt 0.171875 0.446289
vt 0.171875 0.446289
vt 0.171875 0.446289
vt 0.037842 0.228027
vt 0.037842 0.228027
vt 0.037842 0.228027
vt 0.037842 0.228027
vt 0.037842 0.228027
vt 0.037842 0.228027
vt 0.037842 0.228027
vt 0.037842 0.228027
vt 0.037842 0.228027
vt 0.037842 0.228027
vt 0.037842 0.228027
vt 0.037842 0.228027
vt 0.037842 0.228027
vt 0.037842 0.228027
vt 0.037842 0.228027
vt 0.037842 0.228027
vt 0.037842 0.228027
vt 0.037842 0.228027
vt 0.037842 0.228027
vt 0.037842 0.228027
vt 0.037842 0.228027
vt 0.037842 0.228027
vt 0.037842 0.228027
vt 0.037842 0.228027
vt 0.059662 0.229004
vt 0.059662 0.229004
vt 0.059662 0.229004
vt 0.059662 0.229004
vt 0.059662 0.229004
vt 0.059662 0.229004
vt 0.059662 0.229004
vt 0.059662 0.229004
vt 0.059662 0.229004
vt 0.059662 0.229004
vt 0.060455 0.228516
vt 0.060455 0.228516
vt 0.060455 0.228516
vt 0.060455 0.228516
vt 0.060455 0.228516
vt 0.060455 0.228516
vt 0.060455 0.228516
vt 0.060455 0.228516
vt 0.171875 0.446289
vt 0.171875 0.446289
vt 0.171875 0.446289
vt 0.171875 0.446289
vt 0.171875 0.446289
vt 0.171875 0.446289
vt 0.171875 0.446289
vt 0.171875 0.446289
vt 0.171875 0.446289
vt 0.171875 0.446289
vt 0.171875 0.446289
vt 0.171875 0.446289
vt 0.171875 0.446289
vt 0.171875 0.446289
vt 0.059662 0.229004
vt 0.059662 0.229004
vt 0.060455 0.228516
vt 0.060455 0.228516
vt 0.060455 0.228516
vt 0.060455 0.228516
vt 0.171875 0.446289
vt 0.171875 0.446289
vt 0.171875 0.446289
vt 0.171875 0.446289
vt 0.171875 0.446289
vt 0.171875 0.446289
vt 0.171875 0.446289
vt 0.037842 0.228027
vt 0.171875 0.446289
vn 0.2955 0.7212 0.6266
vn -0.0039 0.5041 -0.8636
vn 0.6830 0.7304 -0.0039
vn -0.5552 0.7914 0.2559
vn -0.3012 0.7159 -0.6299
vn 0.5486 0.7932 -0.2644
vn -0.3027 0.7194 0.6251
vn -0.0039 0.5075 0.8616
vn -0.6872 0.7265 -0.0039
vn -0.5540 0.7898 -0.2633
vn 0.2941 0.7176 -0.6313
vn 0.5497 0.7949 0.2570
vn -0.4428 0.7406 0.5055
vn -0.4410 0.7376 -0.5113
vn 0.4347 0.7402 -0.5130
vn 0.4365 0.7431 0.5072
vn 1.0000 -0.0039 -0.0039
vn -0.6582 -0.0039 0.7528
vn 0.6537 -0.0040 0.7567
vn 0.6537 -0.0039 0.7567
vn -0.0039 -0.0039 -1.0000
vn 0.4228 0.0514 0.9048
vn 0.4228 0.0513 0.9048
vn -0.9062 0.0510 0.4198
vn 0.4197 0.0510 -0.9062
vn 0.4198 0.0510 -0.9062
vn 0.9048 0.0513 0.4227
vn 0.9048 0.0513 0.4228
vn 0.9048 0.0514 0.4228
vn -0.4292 0.0512 0.9018
vn -0.4292 0.0512 0.9017
vn -0.6543 -0.0039 -0.7562
vn -0.4262 0.0508 -0.9032
vn -0.4262 0.0509 -0.9032
vn -0.9032 0.0508 -0.4262
vn -0.9032 0.0509 -0.4262
vn 0.6498 -0.0039 -0.7601
vn 0.6498 -0.0040 -0.7601
vn 0.9018 0.0512 -0.4292
vn 0.9017 0.0512 -0.4292
vn -0.0039 -0.0039 1.0000
vn 0.4203 -0.0039 -0.9074
vn 0.9029 -0.0039 -0.4298
vn 0.9029 -0.0040 -0.4298
vn 0.9060 -0.0040 0.4233
vn 0.4233 -0.0040 0.9060
vn -0.4298 -0.0039 0.9029
vn -0.9074 -0.0039 0.4203
vn -0.9044 -0.0039 -0.4267
vn -0.4267 -0.0039 -0.9044
vn 0.1840 -0.8964 -0.4032
vn 0.3960 -0.8979 -0.1921
vn 0.3966 -0.8992 0.1846
vn 0.1846 -0.8992 0.3966
vn -0.1921 -0.8979 0.3960
vn -0.4032 -0.8964 0.1840
vn -0.4026 -0.8951 -0.1916
vn -0.4026 -0.8951 -0.1915
vn -0.1915 -0.8951 -0.4026
vn 0.9646 0.2638 -0.0039
vn 0.9646 0.2638 -0.0040
vn 0.6285 0.2649 0.7313
vn 0.6286 0.2648 0.7313
vn -0.0039 0.1855 0.9826
vn -0.6333 0.2635 0.7277
vn -0.9651 0.2618 -0.0039
vn -0.6297 0.2620 -0.7313
vn -0.0039 0.1841 -0.9829
vn 0.6249 0.2633 -0.7349
vn 0.6249 0.2633 -0.7350
vn -1.0000 -0.0039 -0.0039
vn -0.0039 1.0000 -0.0039
vn -0.0039 -1.0000 -0.0039
usemtl Mat_PolygonWestern_01_A.014
s 1
f 1/1/1 2/2/1 3/3/1
f 4/4/2 5/5/2 6/6/2
f 7/7/3 8/8/3 9/9/3
f 10/10/4 11/11/4 12/12/4
f 13/13/5 4/4/5 6/6/5
f 7/7/6 9/9/6 14/14/6
f 15/15/7 1/1/7 12/12/7
f 2/2/8 1/1/8 15/15/8
f 11/11/9 10/10/9 16/16/9
f 16/16/10 10/10/10 13/13/10
f 5/5/11 4/4/11 14/14/11
f 8/8/12 7/7/12 3/3/12
f 12/12/13 11/11/13 15/15/13
f 13/13/14 6/6/14 16/16/14
f 14/14/15 9/9/15 5/5/15
f 3/3/16 2/2/16 8/8/16
f 17/17/17 18/18/17 19/19/17
f 20/20/18 21/21/18 22/22/18
f 22/22/18 21/21/18 23/23/18
f 24/24/19 25/25/20 26/26/19
f 25/25/20 24/24/19 27/27/20
f 28/28/21 29/29/21 30/30/21
f 28/28/21 30/30/21 31/31/21
f 32/32/22 1/1/23 33/33/22
f 33/33/22 1/1/23 3/3/22
f 34/34/24 10/10/24 35/35/24
f 12/12/24 35/35/24 10/10/24
f 36/36/25 14/14/26 4/4/26
f 4/4/26 37/37/26 36/36/25
f 7/7/27 33/33/28 3/3/27
f 33/33/28 7/7/27 38/38/29
f 35/35/30 1/1/31 32/32/30
f 1/1/31 35/35/30 12/12/31
f 39/39/32 40/40/32 29/29/32
f 29/29/32 40/40/32 30/30/32
f 13/13/33 41/41/34 4/4/33
f 4/4/33 41/41/34 37/37/34
f 10/10/35 41/41/35 13/13/35
f 41/41/35 10/10/35 34/34/36
f 28/28/37 31/31/37 42/42/38
f 42/42/38 31/31/37 43/43/37
f 7/7/39 36/36/39 38/38/40
f 36/36/39 7/7/39 14/14/39
f 22/22/41 27/27/41 24/24/41
f 27/27/41 22/22/41 23/23/41
f 44/44/42 45/45/42 46/46/42
f 45/45/42 44/44/42 47/47/42
f 48/48/43 49/49/44 45/45/43
f 48/48/43 45/45/43 47/47/43
f 49/49/45 48/48/45 50/50/45
f 51/51/45 50/50/45 48/48/45
f 50/50/46 51/51/46 52/52/46
f 52/52/46 53/53/46 50/50/46
f 54/54/47 55/55/47 52/52/47
f 52/52/47 55/55/47 53/53/47
f 55/55/48 54/54/48 56/56/48
f 55/55/48 56/56/48 57/57/48
f 56/56/49 58/58/49 57/57/49
f 58/58/49 56/56/49 59/59/49
f 58/58/50 59/59/50 46/46/50
f 46/46/50 59/59/50 44/44/50
f 37/60/51 45/45/51 36/61/51
f 45/45/51 37/60/51 46/46/51
f 45/45/52 49/49/52 38/62/52
f 45/45/52 38/62/52 36/61/52
f 38/62/53 50/50/53 33/63/53
f 50/50/53 38/62/53 49/49/53
f 50/50/54 53/53/54 32/64/54
f 50/50/54 32/64/54 33/63/54
f 55/55/55 32/64/55 53/53/55
f 32/64/55 55/55/55 35/65/55
f 55/55/56 34/66/56 35/65/56
f 34/66/56 55/55/56 57/57/56
f 58/58/57 34/66/58 57/57/58
f 34/66/58 58/58/57 41/67/58
f 58/58/59 46/46/59 37/60/59
f 37/60/59 41/67/59 58/58/59
f 21/68/18 60/69/18 23/70/18
f 23/70/18 60/69/18 61/71/18
f 23/70/41 61/71/41 27/72/41
f 27/72/41 61/71/41 62/73/41
f 27/72/20 63/74/19 25/75/20
f 63/74/19 27/72/20 62/73/20
f 25/75/17 63/74/17 64/76/17
f 25/75/17 64/76/17 65/77/17
f 66/78/37 28/79/37 17/80/37
f 17/80/37 28/79/37 42/81/38
f 67/82/21 29/83/21 66/78/21
f 66/78/21 29/83/21 28/79/21
f 68/84/32 39/85/32 67/82/32
f 67/82/32 39/85/32 29/83/32
f 69/86/18 61/87/18 60/88/18
f 61/87/18 69/86/18 70/89/18
f 62/90/41 61/87/41 70/89/41
f 62/90/41 70/89/41 71/91/41
f 62/90/20 71/91/19 63/92/19
f 63/92/19 71/91/19 72/93/20
f 73/94/37 66/95/37 19/19/37
f 19/19/37 66/95/37 17/17/37
f 67/96/21 66/95/21 74/97/21
f 73/94/21 74/97/21 66/95/21
f 75/98/32 68/99/32 74/97/32
f 74/97/32 68/99/32 67/96/32
f 26/26/60 9/9/61 8/8/60
f 9/9/61 26/26/60 43/43/61
f 2/2/62 24/24/63 8/8/63
f 8/8/63 24/24/63 26/26/62
f 2/2/64 15/15/64 22/22/64
f 2/2/64 22/22/64 24/24/64
f 11/11/65 22/22/65 15/15/65
f 22/22/65 11/11/65 20/20/65
f 40/40/66 20/20/66 11/11/66
f 11/11/66 16/16/66 40/40/66
f 30/30/67 40/40/67 16/16/67
f 16/16/67 6/6/67 30/30/67
f 30/30/68 5/5/68 31/31/68
f 5/5/68 30/30/68 6/6/68
f 31/31/69 9/9/70 43/43/70
f 9/9/70 31/31/69 5/5/70
f 76/100/71 77/101/71 21/68/71
f 60/69/71 21/68/71 77/101/71
f 18/102/17 42/81/17 78/103/17
f 42/81/17 18/102/17 17/80/17
f 39/85/71 79/104/71 80/105/71
f 79/104/71 39/85/71 68/84/71
f 65/106/17 64/107/17 18/18/17
f 65/106/17 18/18/17 78/108/17
f 72/93/17 64/107/17 63/92/17
f 64/107/17 72/93/17 19/19/17
f 64/107/17 19/19/17 18/18/17
f 65/106/17 26/26/17 25/25/17
f 65/106/17 43/43/17 26/26/17
f 43/43/17 65/106/17 78/108/17
f 43/43/17 78/108/17 42/42/17
f 20/20/71 76/109/71 21/21/71
f 40/40/71 76/109/71 20/20/71
f 76/109/71 40/40/71 80/110/71
f 80/110/71 40/40/71 39/39/71
f 80/110/71 77/111/71 76/109/71
f 77/111/71 80/110/71 79/112/71
f 75/98/71 79/112/71 68/99/71
f 75/98/71 77/111/71 79/112/71
f 77/111/71 75/98/71 69/86/71
f 60/88/71 77/111/71 69/86/71
f 51/51/72 81/113/72 52/52/72
f 81/113/72 51/51/72 48/48/72
f 52/52/72 81/113/72 54/54/72
f 47/47/72 81/113/72 48/48/72
f 54/54/72 81/113/72 56/56/72
f 81/113/72 47/47/72 44/44/72
f 81/113/72 59/59/72 56/56/72
f 59/59/72 81/113/72 44/44/72
f 82/114/73 71/91/73 70/89/73
f 69/86/73 82/114/73 70/89/73
f 71/91/73 82/114/73 72/93/73
f 82/114/73 69/86/73 75/98/73
f 72/93/73 82/114/73 19/19/73
f 75/98/73 74/97/73 82/114/73
f 19/19/73 82/114/73 73/94/73
f 73/94/73 82/114/73 74/97/73
