# Blender v2.80 (sub 75) OBJ File: ''
# www.blender.org
mtllib verres.mtl
o SM_Prop_Cup_357_SM_Prop_Cup_01.002
v 0.000000 -0.000000 -0.058550
v 0.000000 0.144424 -0.058550
v 0.041400 -0.000000 -0.041402
v 0.041400 0.144424 -0.041402
v -0.041404 -0.000000 -0.041402
v -0.041404 0.144424 -0.041402
v -0.058550 0.144424 -0.000001
v -0.058550 -0.000000 -0.000001
v -0.041404 0.144424 0.041400
v -0.041404 0.000000 0.041400
v 0.000000 0.144424 0.058550
v 0.000000 0.000000 0.058550
v 0.041400 0.144424 0.041400
v 0.041400 0.000000 0.041400
v 0.058550 -0.000000 -0.000001
v 0.058550 0.144424 -0.000001
v 0.000000 0.144424 -0.047886
v 0.000000 0.013399 -0.047886
v 0.033860 0.144424 -0.033861
v 0.033860 0.013399 -0.033861
v -0.033863 0.144424 -0.033861
v -0.033863 0.013399 -0.033861
v -0.047886 0.013399 -0.000001
v -0.047886 0.144424 -0.000001
v -0.033863 0.013399 0.033860
v -0.033863 0.144424 0.033860
v 0.000000 0.013399 0.047886
v 0.000000 0.144424 0.047886
v 0.033860 0.013399 0.033860
v 0.033860 0.144424 0.033860
v 0.047886 0.144424 -0.000001
v 0.047886 0.013399 -0.000001
v 0.000000 -0.000000 -0.000001
v 0.000000 0.013399 -0.000001
vt 0.101990 0.354980
vt 0.101990 0.354980
vt 0.101990 0.354980
vt 0.101990 0.354980
vt 0.101990 0.354980
vt 0.101990 0.354980
vt 0.101990 0.354980
vt 0.101990 0.354980
vt 0.101990 0.354980
vt 0.101990 0.354980
vt 0.101990 0.354980
vt 0.101990 0.354980
vt 0.101990 0.354980
vt 0.101990 0.354980
vt 0.101990 0.354980
vt 0.101990 0.354980
vt 0.101990 0.354980
vt 0.101990 0.354980
vt 0.101990 0.354980
vt 0.101990 0.354980
vt 0.101990 0.354980
vt 0.101990 0.354980
vt 0.101990 0.354980
vt 0.101990 0.354980
vt 0.101990 0.354980
vt 0.101990 0.354980
vt 0.101990 0.354980
vt 0.101990 0.354980
vt 0.101990 0.354980
vt 0.101990 0.354980
vt 0.101990 0.354980
vt 0.101990 0.354980
vt 0.101990 0.354980
vt 0.101990 0.354980
vn 0.3788 -0.0039 -0.9255
vn -0.3854 -0.0039 -0.9227
vn -0.9227 -0.0039 -0.3854
vn -0.9255 -0.0039 0.3788
vn -0.3882 -0.0039 0.9215
vn -0.3882 -0.0039 0.9216
vn 0.3815 -0.0039 0.9243
vn 0.9243 -0.0039 0.3815
vn 0.9216 -0.0039 -0.3882
vn 0.9243 -0.0040 0.3815
vn -0.0039 -1.0000 -0.0039
vn -0.0039 1.0000 -0.0039
usemtl Mat_PolygonWestern_01_A.013
s 1
f 1/1/1 2/2/1 3/3/1
f 3/3/1 2/2/1 4/4/1
f 5/5/2 6/6/2 1/1/2
f 1/1/2 6/6/2 2/2/2
f 7/7/3 5/5/3 8/8/3
f 5/5/3 7/7/3 6/6/3
f 9/9/4 8/8/4 10/10/4
f 8/8/4 9/9/4 7/7/4
f 9/9/5 10/10/6 11/11/6
f 11/11/6 10/10/6 12/12/5
f 11/11/7 12/12/7 13/13/7
f 13/13/7 12/12/7 14/14/7
f 15/15/8 16/16/8 14/14/8
f 13/13/8 14/14/8 16/16/8
f 3/3/9 4/4/9 15/15/9
f 16/16/9 15/15/9 4/4/9
f 17/17/6 18/18/6 19/19/6
f 19/19/6 18/18/6 20/20/6
f 21/21/7 22/22/7 17/17/7
f 17/17/7 22/22/7 18/18/7
f 23/23/10 21/21/10 24/24/10
f 21/21/10 23/23/10 22/22/10
f 25/25/9 24/24/9 26/26/9
f 24/24/9 25/25/9 23/23/9
f 25/25/1 26/26/1 27/27/1
f 27/27/1 26/26/1 28/28/1
f 27/27/2 28/28/2 29/29/2
f 29/29/2 28/28/2 30/30/2
f 31/31/3 32/32/3 30/30/3
f 29/29/3 30/30/3 32/32/3
f 19/19/4 20/20/4 31/31/4
f 32/32/4 31/31/4 20/20/4
f 1/1/11 3/3/11 33/33/11
f 5/5/11 1/1/11 33/33/11
f 3/3/11 15/15/11 33/33/11
f 8/8/11 5/5/11 33/33/11
f 15/15/11 14/14/11 33/33/11
f 10/10/11 8/8/11 33/33/11
f 14/14/11 12/12/11 33/33/11
f 12/12/11 10/10/11 33/33/11
f 2/2/12 6/6/12 21/21/12
f 7/7/12 21/21/12 6/6/12
f 21/21/12 17/17/12 2/2/12
f 21/21/12 7/7/12 24/24/12
f 17/17/12 4/4/12 2/2/12
f 7/7/12 26/26/12 24/24/12
f 4/4/12 17/17/12 19/19/12
f 7/7/12 9/9/12 26/26/12
f 16/16/12 4/4/12 19/19/12
f 11/11/12 26/26/12 9/9/12
f 16/16/12 19/19/12 31/31/12
f 26/26/12 11/11/12 28/28/12
f 13/13/12 16/16/12 31/31/12
f 13/13/12 28/28/12 11/11/12
f 13/13/12 31/31/12 30/30/12
f 28/28/12 13/13/12 30/30/12
f 20/20/12 18/18/12 34/34/12
f 32/32/12 20/20/12 34/34/12
f 18/18/12 22/22/12 34/34/12
f 29/29/12 32/32/12 34/34/12
f 22/22/12 23/23/12 34/34/12
f 27/27/12 29/29/12 34/34/12
f 23/23/12 25/25/12 34/34/12
f 25/25/12 27/27/12 34/34/12
